<?xml version="1.0" encoding="UTF-8"?>
<svg version="1.1" xmlns="http://www.w3.org/2000/svg" width="658" height="658">
<path d="M0 0 C1.05655289 -0.00974854 2.11310577 -0.01949707 3.20167542 -0.02954102 C26.39183568 -0.19943308 48.88047169 0.02917938 71.73828125 4.23828125 C72.7864502 4.4202002 73.83461914 4.60211914 74.91455078 4.78955078 C129.35695014 14.35780033 179.72218541 38.94092792 222.73828125 73.23828125 C223.57045166 73.89256104 223.57045166 73.89256104 224.41943359 74.56005859 C233.57158027 81.81222301 241.78288365 90.07739142 250.05078125 98.30078125 C250.6109494 98.85559174 251.17111755 99.41040222 251.7482605 99.98202515 C258.88045679 107.06247162 265.55195205 114.2981461 271.73828125 122.23828125 C272.68175415 123.43916382 272.68175415 123.43916382 273.64428711 124.66430664 C315.13722654 177.99973458 343.45276025 246.20196795 343.9765625 314.5 C343.98631104 315.55655289 343.99605957 316.61310577 344.00610352 317.70167542 C344.17599558 340.89183568 343.94738312 363.38047169 339.73828125 386.23828125 C339.5563623 387.2864502 339.37444336 388.33461914 339.18701172 389.41455078 C329.61876217 443.85695014 305.03563458 494.22218541 270.73828125 537.23828125 C270.08400146 538.07045166 270.08400146 538.07045166 269.41650391 538.91943359 C262.16433949 548.07158027 253.89917108 556.28288365 245.67578125 564.55078125 C245.12097076 565.1109494 244.56616028 565.67111755 243.99453735 566.2482605 C236.91409088 573.38045679 229.6784164 580.05195205 221.73828125 586.23828125 C220.93769287 586.86726318 220.13710449 587.49624512 219.31225586 588.14428711 C165.97682792 629.63722654 97.77459455 657.95276025 29.4765625 658.4765625 C28.42000961 658.48631104 27.36345673 658.49605957 26.27488708 658.50610352 C3.08472682 658.67599558 -19.40390919 658.44738312 -42.26171875 654.23828125 C-43.3098877 654.0563623 -44.35805664 653.87444336 -45.43798828 653.68701172 C-99.88038764 644.11876217 -150.24562291 619.53563458 -193.26171875 585.23828125 C-194.09388916 584.58400146 -194.09388916 584.58400146 -194.94287109 583.91650391 C-204.09501777 576.66433949 -212.30632115 568.39917108 -220.57421875 560.17578125 C-221.1343869 559.62097076 -221.69455505 559.06616028 -222.271698 558.49453735 C-229.40389429 551.41409088 -236.07538955 544.1784164 -242.26171875 536.23828125 C-242.89070068 535.43769287 -243.51968262 534.63710449 -244.16772461 533.81225586 C-285.66066404 480.47682792 -313.97619775 412.27459455 -314.5 343.9765625 C-314.50974854 342.92000961 -314.51949707 341.86345673 -314.52954102 340.77488708 C-314.69943308 317.58472682 -314.47082062 295.09609081 -310.26171875 272.23828125 C-310.0797998 271.1901123 -309.89788086 270.14194336 -309.71044922 269.06201172 C-300.14219967 214.61961236 -275.55907208 164.25437709 -241.26171875 121.23828125 C-240.82553223 120.68350098 -240.3893457 120.1287207 -239.93994141 119.55712891 C-232.68777699 110.40498223 -224.42260858 102.19367885 -216.19921875 93.92578125 C-215.64440826 93.3656131 -215.08959778 92.80544495 -214.51797485 92.228302 C-207.43752838 85.09610571 -200.2018539 78.42461045 -192.26171875 72.23828125 C-191.46113037 71.60929932 -190.66054199 70.98031738 -189.83569336 70.33227539 C-136.50026542 28.83933596 -68.29803205 0.52380225 0 0 Z " fill="#2E2E2E" transform="translate(314.26171875,-0.23828125)"/>
<path d="M0 0 C19.2561488 -0.0931486 38.51223261 -0.16425842 57.76856136 -0.20724869 C66.71240412 -0.22775269 75.65610313 -0.25563622 84.59985352 -0.30175781 C92.4078406 -0.34200277 100.21572345 -0.36752079 108.0238114 -0.37635398 C112.14672723 -0.38150603 116.26934523 -0.39335071 120.39216423 -0.42292023 C158.78924607 -0.6874929 199.92584362 3.50850319 230 30 C230.83015625 30.68707031 231.6603125 31.37414062 232.515625 32.08203125 C239.07522767 37.66574211 244.10081526 43.93716752 249 51 C249.71929687 52.01964844 250.43859375 53.03929687 251.1796875 54.08984375 C253.48641791 57.77764237 254.12590544 60.7752096 255 65 C255.66 65 256.32 65 257 65 C257.41572266 66.49853516 257.41572266 66.49853516 257.83984375 68.02734375 C258.20555549 69.33077791 258.57145038 70.63416069 258.9375 71.9375 C259.11990234 72.59685547 259.30230469 73.25621094 259.49023438 73.93554688 C260.22596101 77.23821173 260.22596101 77.23821173 262 80 C262.37322245 82.30639814 262.69891805 84.62058027 263 86.9375 C263.48112322 91.62307486 263.48112322 91.62307486 265 96 C265.21306317 100.29743046 265.18579234 104.59899282 265.18530273 108.90112305 C265.18746696 111.02999539 265.20556045 113.1583303 265.22460938 115.28710938 C265.25426913 122.49300067 264.90213527 129.0326281 263 136 C262.70198432 137.68639033 262.40888507 139.3736735 262.125 141.0625 C261.33313275 145.08370089 260.04134557 148.25982973 258.0859375 151.83984375 C255.96970199 156.04947769 254.53680169 160.55308447 253 165 C252.34 165 251.68 165 251 165 C250.814375 165.78375 250.62875 166.5675 250.4375 167.375 C243.56452682 184.70684542 226.29542433 198.94270634 210 207 C201.51586189 210.62233303 193.14943122 212.8772676 184 214 C184.62003906 214.82757813 185.24007812 215.65515625 185.87890625 216.5078125 C193.63794691 226.93924582 200.95680203 237.64931902 208.24560547 248.41259766 C215.33382473 258.86638943 222.55026368 269.2292164 229.80224609 279.56982422 C234.80284519 286.70510979 239.74923421 293.87624409 244.67333984 301.06445312 C246.02666473 303.03890282 247.38208301 305.01189796 248.73828125 306.984375 C249.42216919 307.97908813 249.42216919 307.97908813 250.11987305 308.99389648 C251.03351533 310.32193446 251.94773249 311.64957714 252.86254883 312.97680664 C255.24521095 316.43586741 257.61331156 319.90376551 259.9609375 323.38671875 C260.44884766 324.10666016 260.93675781 324.82660156 261.43945312 325.56835938 C262.3670977 326.93773945 263.29057782 328.30995404 264.20898438 329.68554688 C267.90783786 335.12967369 271.95758992 339.54785394 277.5 343.1875 C278.2321875 343.67605469 278.964375 344.16460938 279.71875 344.66796875 C283.67756325 346.97953608 287.24927634 348.21635311 291.8125 348.625 C293.194375 348.74875 294.57625 348.8725 296 349 C296 353.29 296 357.58 296 362 C286.61269893 362.51311062 277.23030805 362.90217557 267.83197689 363.13986778 C263.46550312 363.25405962 259.10870168 363.40829737 254.74780273 363.65966797 C226.71763726 365.23314415 226.71763726 365.23314415 219.02038574 359.95797729 C214.123223 354.88273037 211.05070541 349.0465702 208.21109009 342.64086914 C206.64772057 339.23182934 204.73243139 336.49069647 202.4921875 333.48828125 C201.88568359 332.61945313 201.27917969 331.750625 200.65429688 330.85546875 C200.06712891 330.01628906 199.47996094 329.17710937 198.875 328.3125 C194.0502575 321.39719235 189.25061863 314.46644183 184.5 307.5 C179.70690445 300.47166996 174.86487229 293.47883008 170 286.5 C165.13512668 279.52116844 160.29321326 272.5282509 155.5 265.5 C150.53683593 258.2242393 145.52944031 250.98010699 140.5 243.75 C139.82904297 242.78513672 139.15808594 241.82027344 138.46679688 240.82617188 C136.64819514 238.21479925 134.8295384 235.60372408 133 233 C132.71518013 232.42122227 132.43036026 231.84244453 132.13690948 231.24612808 C130.94588648 229.09041577 129.87033967 227.61622652 128 226 C124.13051741 224.9535177 120.34456781 225.04547442 116.35546875 225.09765625 C115.2305452 225.08536484 114.10562164 225.07307343 112.9466095 225.06040955 C109.35957755 225.02865901 105.77459658 225.04496447 102.1875 225.0625 C99.75323608 225.04939255 97.31898687 225.0331535 94.88476562 225.01367188 C88.92287088 224.97279881 82.9619442 224.97135773 77 225 C77.01381615 239.76029456 77.05609189 254.52027935 77.13209057 269.28038979 C77.16671873 276.13406546 77.1920932 282.98754047 77.19555664 289.84130859 C77.19892494 296.45506002 77.22824826 303.06836786 77.27343178 309.68198776 C77.28642563 312.20572344 77.29070784 314.72951944 77.28615379 317.25328445 C77.28126164 320.78741246 77.30728232 324.32005804 77.34057617 327.85400391 C77.32763771 329.42062271 77.32763771 329.42062271 77.31443787 331.01889038 C77.41166377 337.25045182 77.41166377 337.25045182 80.33808899 342.58334351 C85.94311537 347.67195216 91.73723576 348.44132583 99 349 C99 353.29 99 357.58 99 362 C66.33 362 33.66 362 0 362 C0 357.71 0 353.42 0 349 C1.32 348.9175 2.64 348.835 4 348.75 C9.99057999 348.07075313 14.52321258 346.13819416 19.08016491 342.20420742 C22.1013485 337.16184783 21.56777248 332.17669399 21.5415802 326.40455627 C21.55134799 325.11003145 21.56111578 323.81550662 21.57117957 322.48175377 C21.59759178 318.89024225 21.59899195 315.29909005 21.59619391 311.70749843 C21.5974344 307.83347743 21.62153881 303.95958751 21.64250183 300.08563232 C21.67958524 292.49694819 21.69429125 284.90837955 21.69997636 277.31961269 C21.70460913 271.15223939 21.71518901 264.98490591 21.72995567 258.81754875 C21.77093304 241.33547057 21.79400492 223.85348954 21.79583076 206.37136341 C21.79593366 205.42888917 21.79603656 204.48641493 21.79614258 203.51538086 C21.79624137 202.57175735 21.79634015 201.62813383 21.79644194 200.65591567 C21.79917233 185.35704326 21.84535359 170.05864504 21.9109172 154.7599249 C21.97768773 139.05479589 22.01090439 123.34990057 22.00947779 107.64462608 C22.00939842 98.82574963 22.02343518 90.00740733 22.07383156 81.18866158 C22.11650271 73.68142416 22.12822895 66.17493634 22.09956519 58.66761846 C22.08584123 54.83652336 22.08669762 51.00689037 22.12668228 47.17594719 C22.16959283 43.02367914 22.14288542 38.87477934 22.10920715 34.72242737 C22.14443779 32.90361292 22.14443779 32.90361292 22.18038017 31.04805475 C22.16424233 24.92412614 22.16424233 24.92412614 19.04552591 19.92151821 C14.73317088 16.94677873 10.68686154 15.22837489 5.4375 14.625 C2.7459375 14.315625 2.7459375 14.315625 0 14 C0 9.38 0 4.76 0 0 Z " fill="#FCCCA6" transform="translate(181,246)"/>
<path d="M0 0 C0.85648636 -0.00807175 1.71297272 -0.01614349 2.59541321 -0.02445984 C4.41002411 -0.03825435 6.22466045 -0.0489971 8.03930664 -0.05688477 C9.85709485 -0.06829516 11.67485255 -0.08856858 13.49243164 -0.1184082 C40.92841374 -0.5675203 63.39815252 5.93086469 83.48828125 25.30078125 C90.1095928 32.26481079 94.61087347 39.26555764 98.11328125 48.23828125 C98.50902344 49.18445313 98.90476562 50.130625 99.3125 51.10546875 C105.77215996 69.28317853 103.29528888 90.36146578 97.11328125 108.23828125 C96.65058342 109.6821449 96.18834017 111.1261543 95.7265625 112.5703125 C92.85495566 121.17517945 88.96821412 128.25124222 83.11328125 135.23828125 C82.53578125 135.95371094 81.95828125 136.66914063 81.36328125 137.40625 C74.42006559 145.71560763 66.58271058 152.02845681 57.11328125 157.23828125 C56.18515625 157.79515625 55.25703125 158.35203125 54.30078125 158.92578125 C44.14588828 163.10720777 33.9148187 163.65942847 23.0625 163.53125 C21.66860924 163.52563628 20.27471246 163.52137462 18.8808136 163.51838684 C15.25911341 163.50707739 11.63778955 163.47773524 8.01623535 163.4442749 C4.30189094 163.41326916 0.58748413 163.39981719 -3.12695312 163.38476562 C-10.38037761 163.35284783 -17.63349493 163.30182639 -24.88671875 163.23828125 C-24.93346128 143.80161596 -24.96871865 124.36496209 -24.99034309 104.92825222 C-25.00065104 95.90323952 -25.01470218 86.87826176 -25.03759766 77.85327148 C-25.05754626 69.98612875 -25.07043869 62.11901132 -25.07489574 54.25184399 C-25.07750062 50.08712414 -25.08361324 45.9224767 -25.09817886 41.75778008 C-25.11178599 37.83524368 -25.11593507 33.9128093 -25.11293411 29.99025154 C-25.11348288 28.55317251 -25.11744166 27.11608995 -25.1251297 25.67903137 C-25.13513944 23.71092723 -25.13148258 21.74276795 -25.12722778 19.77464294 C-25.12999316 18.1250944 -25.12999316 18.1250944 -25.13281441 16.44222164 C-24.79804295 12.08380343 -24.32372741 7.68176293 -21.15234375 4.49609375 C-20.4871875 4.12226563 -19.82203125 3.7484375 -19.13671875 3.36328125 C-18.15445312 2.77933594 -18.15445312 2.77933594 -17.15234375 2.18359375 C-11.69484048 -0.09350244 -5.8188152 0.05331228 0 0 Z " fill="#2E2E2E" transform="translate(284.88671875,275.76171875)"/>
<path d="M0 0 C8.25 0 16.5 0 25 0 C23.875 11.25 23.875 11.25 21.9375 15.125 C21.57527344 15.87007812 21.21304687 16.61515625 20.83984375 17.3828125 C20.56269531 17.91648437 20.28554688 18.45015625 20 19 C19.34 19 18.68 19 18 19 C17.71125 19.78375 17.4225 20.5675 17.125 21.375 C16 24 16 24 14 26 C10.6284695 25.6551044 8.55226566 24.1230764 5.9375 22.0625 C3.6557191 20.27999554 1.41370148 18.60913432 -1 17 C-1.05657242 14.01654925 -0.9575472 11.32718768 -0.6875 8.375 C-0.460625 5.61125 -0.23375 2.8475 0 0 Z " fill="#F07E76" transform="translate(346,70)"/>
<path d="M0 0 C7.92 0 15.84 0 24 0 C25.78062402 12.76113881 25.78062402 12.76113881 25 17 C22.18664736 20.52326405 19.03206667 22.11750037 15 24 C14.34 24.66 13.68 25.32 13 26 C10.50787355 25.7923228 9.35959725 25.39095747 7.65625 23.5390625 C3.09116174 15.98199071 0 8.90921469 0 0 Z " fill="#F68078" transform="translate(288,70)"/>
<path d="M0 0 C3.26465876 0 4.273989 1.26746545 6.625 3.5625 C8.99875897 6.58232792 9.85466669 9.39199378 10.59765625 13.12109375 C10.97351402 15.17107777 10.97351402 15.17107777 12.125 17.625 C13 20 13 20 13 26 C5.41 26 -2.18 26 -10 26 C-12.0473433 9.3803897 -12.0473433 9.3803897 -9.1328125 5.5390625 C-6.80363578 4.07309505 -4.55147009 3.01514973 -2 2 C-1.34 1.34 -0.68 0.68 0 0 Z " fill="#F9817A" transform="translate(357,40)"/>
<path d="M0 0 C3.32045094 0.59111324 5.08782654 1.67320147 7.5625 3.9375 C9.67386601 5.85136629 11.60834339 7.40556226 14 9 C14.05657242 11.98345075 13.9575472 14.67281232 13.6875 17.625 C13.460625 20.38875 13.23375 23.1525 13 26 C5.41 26 -2.18 26 -10 26 C-8.76515653 16.12125226 -7.21546676 7.21546676 0 0 Z " fill="#FC827A" transform="translate(298,40)"/>
<path d="M0 0 C8.91 0 17.82 0 27 0 C27 11 27 11 26 16 C25.03964844 15.83628906 24.07929688 15.67257813 23.08984375 15.50390625 C18.57586275 14.85905182 14.11378358 14.88982338 9.5625 14.9375 C8.32209961 14.94426758 8.32209961 14.94426758 7.05664062 14.95117188 C5.03772854 14.96284189 3.01885426 14.98077282 1 15 C0 11 0 11 0 0 Z " fill="#F58078" transform="translate(316,70)"/>
<path d="M0 0 C-0.12890625 1.8828125 -0.12890625 1.8828125 -1 4 C-3.58984375 5.0546875 -3.58984375 5.0546875 -6.9375 5.875 C-19.6079532 9.47141685 -28.51660057 16.64070077 -36.375 27.1875 C-39.30703836 32.93988002 -40.48731856 39.74811981 -42 46 C-40.68 46 -39.36 46 -38 46 C-38.47246642 50.25219775 -40.77272377 52.37314725 -44 55 C-47.20133333 55.20008333 -48.32249555 53.73483699 -50.8125 51.6875 C-53 49 -53 49 -52.8125 46.6875 C-52.544375 46.130625 -52.27625 45.57375 -52 45 C-50.35 45.66 -48.7 46.32 -47 47 C-47.103125 46.0925 -47.20625 45.185 -47.3125 44.25 C-47.28987302 33.07227358 -39.10538305 22.08227082 -31.75 14.3125 C-23.24320561 6.10645087 -12.06822685 -0.34480648 0 0 Z " fill="#E37871" transform="translate(323,15)"/>
<path d="M0 0 C0 1.32 0 2.64 0 4 C-0.99 4.495 -0.99 4.495 -2 5 C-1.11699219 5.21914062 -0.23398437 5.43828125 0.67578125 5.6640625 C16.23109103 9.77427325 29.60685056 17.48508051 39 31 C43.03137436 38.02963885 46.39307129 44.74550296 46 53 C44.35 52.67 42.7 52.34 41 52 C40.52820313 50.37191406 40.52820313 50.37191406 40.046875 48.7109375 C39.61511115 47.26546723 39.18278975 45.82016343 38.75 44.375 C38.54503906 43.66214844 38.34007812 42.94929688 38.12890625 42.21484375 C35.97587298 35.10330963 32.44510292 30.0738459 27 25 C26.45859375 24.4534375 25.9171875 23.906875 25.359375 23.34375 C17.81859718 16.11981159 8.17980924 11.99604103 -2 10 C-2 10.66 -2 11.32 -2 12 C-1.34 12 -0.68 12 0 12 C-0.33 13.32 -0.66 14.64 -1 16 C-4.82792868 14.4404735 -7.36359864 12.16368164 -10 9 C-10.1875 7 -10.1875 7 -9 5 C-3.77272727 0 -3.77272727 0 0 0 Z " fill="#E27871" transform="translate(337,9)"/>
<path d="M0 0 C2.91416534 1.63921801 4.85869734 3.56733293 7 6.125 C7 7.445 7 8.765 7 10.125 C4.83125748 9.61896008 3.00032373 9.12516187 1 8.125 C1 10.765 1 13.405 1 16.125 C0.34 16.125 -0.32 16.125 -1 16.125 C-1.103125 16.764375 -1.20625 17.40375 -1.3125 18.0625 C-2.23903073 22.18977326 -3.61660629 26.13142949 -5 30.125 C-5.66 30.125 -6.32 30.125 -7 30.125 C-7.226875 30.640625 -7.45375 31.15625 -7.6875 31.6875 C-13.89310131 43.21218815 -23.80998303 50.02796279 -36.0625 54.328125 C-39.60883185 55.29016183 -42.36614019 55.54754184 -46 55.125 C-46 54.135 -46 53.145 -46 52.125 C-45.04480469 51.84527344 -44.08960938 51.56554687 -43.10546875 51.27734375 C-27.25057918 46.4480045 -16.08161402 39.03291637 -8.0625 24 C-5.95558242 19.46649458 -4.87159686 15.03763682 -4 10.125 C-5.32 10.125 -6.64 10.125 -8 10.125 C-7.69404824 6.55556285 -6.97575359 5.09485581 -4.6875 2.25 C-2 0.125 -2 0.125 0 0 Z " fill="#DC766F" transform="translate(381,65.875)"/>
<path d="M0 0 C8.25 0 16.5 0 25 0 C25 4.95 25 9.9 25 15 C16.42 15 7.84 15 -1 15 C-0.67 10.05 -0.34 5.1 0 0 Z " fill="#FC837B" transform="translate(317,51)"/>
<path d="M0 0 C1.8984375 0.25 1.8984375 0.25 4 1 C4.9765625 2.75 4.9765625 2.75 5.625 5 C5.86089844 5.80308594 6.09679687 6.60617188 6.33984375 7.43359375 C7.3266322 11.26980682 8.21963499 15.11653648 9 19 C9.66 19 10.32 19 11 19 C12.21798255 20.65084399 13.37376066 22.34775445 14.5 24.0625 C21.47288596 33.81452543 30.5925149 38.64576658 42 42 C43.32 42 44.64 42 46 42 C46 40.68 46 39.36 46 38 C50.25219775 38.47246642 52.37314725 40.77272377 55 44 C55.19996304 47.1994086 53.75849685 48.28719293 51.6875 50.75 C49 53 49 53 45 53 C45 52.01 45 51.02 45 50 C45.66 50 46.32 50 47 50 C47 49.34 47 48.68 47 48 C46.27296875 47.85304687 45.5459375 47.70609375 44.796875 47.5546875 C29.01950942 44.03512133 16.96196081 36.5787285 8 23 C7.51789063 22.58105469 7.03578125 22.16210938 6.5390625 21.73046875 C4.26785284 19.17679901 3.44940908 16.39337876 2.3125 13.1875 C1.87550781 11.98480469 1.43851562 10.78210938 0.98828125 9.54296875 C0.04396965 6.15763032 -0.19767582 3.4887111 0 0 Z " fill="#E77A73" transform="translate(276,74)"/>
<path d="M0 0 C4.22502871 0.73125497 5.45054816 2.38186645 7.9921875 5.6953125 C10.92019028 10.04185078 11.49254556 13.34777045 11.25 18.5625 C7.42904503 19.7906641 3.73826961 19.69535092 -0.25 19.6875 C-1.5596875 19.69007812 -2.869375 19.69265625 -4.21875 19.6953125 C-6.97235924 19.59174755 -9.15352847 19.39708014 -11.75 18.5625 C-7.29697286 1.49256263 -7.29697286 1.49256263 0 0 Z " fill="#F17E77" transform="translate(328.75,28.4375)"/>
<path d="M0 0 C-0.60182925 4.0366596 -1.90261098 7.06292431 -3.875 10.625 C-4.64457031 12.03652344 -4.64457031 12.03652344 -5.4296875 13.4765625 C-6.81091797 15.69615176 -7.97546744 17.36291167 -10 19 C-12.3125 19.125 -12.3125 19.125 -15 18 C-19.09962158 14.31437961 -21.8156952 10.4478021 -23 5 C-23.125 2.125 -23.125 2.125 -23 0 C-15.31381187 -1.33672837 -7.67442249 -1.61566789 0 0 Z " fill="#F37F77" transform="translate(341,89)"/>
<path d="M0 0 C1 3 1 3 0.20703125 4.7265625 C-7.30394112 14.95158371 -17.80198331 21.69096356 -30 25 C-32.51743337 25.31467917 -34.47073947 25.29410006 -37 25 C-37 24.01 -37 23.02 -37 22 C-36.04480469 21.72027344 -35.08960938 21.44054687 -34.10546875 21.15234375 C-22.84819807 17.71789743 -13.36337648 13.52907544 -6 4 C-3.25 2.1875 -3.25 2.1875 -1 1 C-0.67 0.67 -0.34 0.34 0 0 Z " fill="#EC7C75" transform="translate(372,96)"/>
<path d="M0 0 C7.63262326 1.59948355 13.13412691 3.80643328 19 9 C17.65790559 12.11819946 16.32585491 13.84546672 13.5625 15.8125 C12.96566406 16.25207031 12.36882812 16.69164063 11.75390625 17.14453125 C10 18 10 18 7 17 C5.59408917 14.2662845 4.9992749 11.99407831 4.625 8.9375 C3.88168474 5.44391826 2.59811301 4.34668272 0 2 C0 1.34 0 0.68 0 0 Z " fill="#EA7B74" transform="translate(336,27)"/>
<path d="M0 0 C5.68088674 1.13617735 6.90204811 2.28325294 11 6 C10.85546875 7.80078125 10.85546875 7.80078125 10 10 C7.48828125 11.66796875 7.48828125 11.66796875 4.3125 13.1875 C3.27738281 13.69667969 2.24226563 14.20585938 1.17578125 14.73046875 C-2 16 -2 16 -8 17 C-5.36 11.39 -2.72 5.78 0 0 Z " fill="#EE7D75" transform="translate(344,92)"/>
<path d="M0 0 C0.33773438 0.81984375 0.67546875 1.6396875 1.0234375 2.484375 C1.46945312 3.56203125 1.91546875 4.6396875 2.375 5.75 C2.81585938 6.81734375 3.25671875 7.8846875 3.7109375 8.984375 C4.73307585 11.37555926 5.80213595 13.69383183 7 16 C-0.02652394 15.73975837 -5.52467427 13.51041177 -11 9 C-11 8.01 -11 7.02 -11 6 C-9.35546875 4.39453125 -9.35546875 4.39453125 -7.1875 2.8125 C-6.47980469 2.28269531 -5.77210938 1.75289063 -5.04296875 1.20703125 C-3 0 -3 0 0 0 Z " fill="#F68078" transform="translate(314,92)"/>
<path d="M0 0 C-0.42152344 0.90363281 -0.84304688 1.80726562 -1.27734375 2.73828125 C-1.82519531 3.91777344 -2.37304688 5.09726562 -2.9375 6.3125 C-3.48277344 7.48425781 -4.02804687 8.65601563 -4.58984375 9.86328125 C-6.03484939 12.93693062 -6.03484939 12.93693062 -7 16 C-11.39381209 15.49785005 -13.83419795 14.07786311 -17 11 C-17.640625 8.86328125 -17.640625 8.86328125 -18 7 C-16.39805929 6.01719585 -14.79336258 5.03888283 -13.1875 4.0625 C-12.29417969 3.51722656 -11.40085937 2.97195312 -10.48046875 2.41015625 C-6.82712324 0.33321494 -4.13801055 -0.11183812 0 0 Z " fill="#F17E77" transform="translate(321,28)"/>
<path d="M0 0 C0.66 0 1.32 0 2 0 C2.04898437 1.07121094 2.09796875 2.14242187 2.1484375 3.24609375 C2.22345294 4.64325639 2.2990013 6.0403905 2.375 7.4375 C2.4059375 8.14455078 2.436875 8.85160156 2.46875 9.58007812 C2.57280629 11.39239188 2.77919892 13.19817988 3 15 C3.66 15.33 4.32 15.66 5 16 C3.68 15.67 2.36 15.34 1 15 C0.67 15.99 0.34 16.98 0 18 C-0.66 17.67 -1.32 17.34 -2 17 C-2.05418326 14.91695462 -2.09287551 12.83350232 -2.125 10.75 C-2.14820313 9.58984375 -2.17140625 8.4296875 -2.1953125 7.234375 C-2.0103949 4.17213954 -1.60823023 2.55797249 0 0 Z " fill="#57413F" transform="translate(314,70)"/>
<path d="M0 0 C0.66 0.33 1.32 0.66 2 1 C1.175 1.763125 0.35 2.52625 -0.5 3.3125 C-3.34055197 5.75434142 -3.34055197 5.75434142 -3 9 C-4.32 8.34 -5.64 7.68 -7 7 C-4.66666667 4.66666667 -2.33333333 2.33333333 0 0 Z " fill="#D2726B" transform="translate(309,93)"/>
<path d="M0 0 C2 0.3125 2 0.3125 4 1 C4.33 1.66 4.66 2.32 5 3 C3.8553125 3.2165625 3.8553125 3.2165625 2.6875 3.4375 C-0.08172908 3.9632594 -0.08172908 3.9632594 -3 5 C-1.125 1.125 -1.125 1.125 0 0 Z " fill="#CE706A" transform="translate(298,40)"/>
</svg>
